<svg xmlns="http://www.w3.org/2000/svg" xmlns:xlink="http://www.w3.org/1999/xlink" width="82.205" height="38.931" viewBox="0 0 82.205 38.931">
  <defs>
    <linearGradient id="linear-gradient" x1="0.5" x2="0.5" y2="1" gradientUnits="objectBoundingBox">
      <stop offset="0" stop-color="#f9a205"/>
      <stop offset="1" stop-color="#ff6d01"/>
    </linearGradient>
  </defs>
  <g id="Groupe_2877" data-name="Groupe 2877" transform="translate(-340.5 -191.465)">
    <g id="FINAL_LOGO_FIESTA" data-name="FINAL LOGO FIESTA" transform="translate(340.5 191.465)">
      <g id="Groupe_2986" data-name="Groupe 2986" transform="translate(0.211 9.438)">
        <path id="Tracé_28746" data-name="Tracé 28746" d="M480.035,406.156a4.541,4.541,0,0,0-1.254.289c-.461.147-.989.333-1.492.518-.265.1-.465.175-.7.265.2-.155.4-.322.588-.5l1.117-1.043a.8.8,0,0,0,.179-.965.778.778,0,0,0-1.212-.195l-1.145,1.069c-.257.24-.748.651-1.072.887-.023-.006-.046-.009-.069-.016l.268-.623a.8.8,0,0,0-.225-.958.777.777,0,0,0-1.187.314l-.7,1.7a2.883,2.883,0,0,1-.481.484,2.936,2.936,0,0,1-.615.373,13.475,13.475,0,0,1-2.634.912,21.2,21.2,0,0,1-4.912.3l1.28,4.248h0a12.067,12.067,0,0,0,2.156-.294c.473-.091.99-.208,1.754-.418.908-.25,2.183-.637,3.747-1.227q.82-.289,1.671-.572c.588-.195,1.07-.349,1.386-.448a8.832,8.832,0,0,1,1.191-.264,9.005,9.005,0,0,1,1.784-.072h0a.742.742,0,1,0,.114-1.48,8.515,8.515,0,0,0-2.04.1c-.021-.038-.042-.075-.066-.114.113-.042.195-.075.312-.118.492-.18,1.006-.362,1.434-.5s.828-.221.833-.221h0a.669.669,0,0,0,.669-.669v-.083a.677.677,0,0,0-.685-.685" transform="translate(-446.537 -397.942)" fill="url(#linear-gradient)"/>
        <path id="Tracé_28747" data-name="Tracé 28747" d="M14.464,531.4c-.062,0-.123,0-.184,0a8.043,8.043,0,0,0-1.069.116,9.42,9.42,0,0,0-1.5.408,8.3,8.3,0,0,0-2.495,1.334A7.71,7.71,0,0,0,7.549,535.1a6.868,6.868,0,0,1-1.789.919l-.021.009a.549.549,0,0,0-.343.589.52.52,0,0,0,.658.407,6.362,6.362,0,0,0,1.586-.742c.031.033.062.065.1.1-.212.227-.427.454-.615.64a5.938,5.938,0,0,1-.45.4.509.509,0,0,0-.175.694h0a.434.434,0,0,0,.6.226,3,3,0,0,0,.729-.6c.241-.24.511-.525.767-.8l.016-.018a1.857,1.857,0,0,0,.243.074l-.222.613a.564.564,0,0,0,.16.636.543.543,0,0,0,.853-.238l.375-1.037a9.442,9.442,0,0,1,.431-.987l.095.467a.571.571,0,0,0,.521.475.545.545,0,0,0,.555-.584,4.957,4.957,0,0,0-.23-1.467,12.834,12.834,0,0,1,1.977-.5,9.163,9.163,0,0,1,1.712-.172,7.994,7.994,0,0,1,3.877,1.487L17.852,532.1a8.093,8.093,0,0,0-3.388-.7" transform="translate(-5.389 -520.056)" fill="url(#linear-gradient)"/>
        <path id="Tracé_28748" data-name="Tracé 28748" d="M325.889,259.869l-1.058-4.248a28.553,28.553,0,0,1-1.316-5.21,25.059,25.059,0,0,1-.23-7.068c.026-.187.051-.34.067-.441l-5.39-1.592c-.055.4-.1.718-.133.937,0,0-.13.891-.19,1.4-.019.158-.044.381-.066.675a15.225,15.225,0,0,0-.026,1.6,42.811,42.811,0,0,0,.412,4.616,48.307,48.307,0,0,0,1.228,5.582c.124.456.248.907.37,1.351,1.169,4.237,2.2,8.038,1.264,13.336h5.487a30.728,30.728,0,0,0-.421-10.934" transform="translate(-305.33 -241.309)" fill="url(#linear-gradient)"/>
        <path id="Tracé_28749" data-name="Tracé 28749" d="M637.654,631.564a4.37,4.37,0,0,0,4.188-5.094c-.181-.691-.623-.815-1.4-.391a7.144,7.144,0,0,0-2.789,5.485m6.2,4.988c-4.27,3.111-7.678,2.917-9.78-.7-.695.588-1.38,1.2-2.1,1.762a4.463,4.463,0,0,1-1,.551c-3.043,1.316-5.358-.331-4.878-3.613.457-3.123,1.149-6.212,1.793-9.3a1.159,1.159,0,0,1,.791-.737c1.034-.09,2.082-.035,3.23-.035-.513,2.555-1.008,4.994-1.491,7.435-.251,1.271-.534,2.539-.706,3.821-.149,1.1.43,1.51,1.424.969,1.48-.8,2.634-1.767,2.646-3.775A8.958,8.958,0,0,1,637.4,625.5a6.292,6.292,0,0,1,1.764-.907c1.469-.493,2.939-.524,4.02.785a3.835,3.835,0,0,1,.293,4.3c-1.027,2.219-2.95,3.11-5.269,3.336-.247.024-.494.045-.807.073a3.725,3.725,0,0,0,1.54,3.237,2.993,2.993,0,0,0,3.49-.258,14.939,14.939,0,0,0,1.9-1.947,4.753,4.753,0,0,0,.311-.477c1.027-1.412,1.576-1.486,2.881-.39.284.239.56.486.849.738a13.108,13.108,0,0,0-1.657,1.015c-.763.636-.6,1.447.3,1.864a4.2,4.2,0,0,0,4.723-1.253,1.375,1.375,0,0,0-.143-2.036,11.073,11.073,0,0,0-1.686-1.218,9.22,9.22,0,0,1-3.544-2.943,2.685,2.685,0,0,1,.82-3.9,8.153,8.153,0,0,1,8.016-.46,3.054,3.054,0,0,1,1.577,4.063c-.526-.166-1.061-.322-1.587-.506-.5-.176-1-.381-1.479-.566a.459.459,0,0,1,0-.125c.265-.681.659-1.46.008-2.028a2.213,2.213,0,0,0-2.428-.066,4.53,4.53,0,0,0-.659.381,1.537,1.537,0,0,0-.2,2.675c1.146.839,2.42,1.5,3.626,2.264,1.568.989,2.162,2.2,1.839,3.73a3.761,3.761,0,0,1-2.031,2.518,9.031,9.031,0,0,1-7.356.8,13.04,13.04,0,0,1-2.649-1.649" transform="translate(-601.766 -609.242)" fill="url(#linear-gradient)"/>
        <path id="Tracé_28750" data-name="Tracé 28750" d="M1455.243,573.613a13.021,13.021,0,0,0,.371,1.88,1.088,1.088,0,0,0,1.608.705,5.179,5.179,0,0,0,3.105-3.583c.35-1.764.645-3.54,1.048-5.292a1.374,1.374,0,0,0-.574-1.557,1.815,1.815,0,0,0-2.5.24c-2.2,1.953-2.792,4.577-3.059,7.607m13.858-.308a7.66,7.66,0,0,1-5.172,4.756c-2,.53-3.133-.19-3.9-2.373-2.808,3.334-7.013,3.425-8.625-.047-.627.516-1.238,1.065-1.9,1.546a5.66,5.66,0,0,1-1.263.654c-2.863,1.128-5.074-.553-4.631-3.593.287-1.966.768-3.9,1.158-5.856.055-.273.088-.55.141-.9l-1.567-.156c.419-.948.4-2.233,2-1.686.237-1.087.493-2.031.63-2.992.074-.516.281-.678.76-.756,1.083-.178,2.157-.417,3.376-.66l-.79,4.351h2.2c-.416,1.069-.631,2.16-2.118,1.844-.14-.03-.479.282-.524.481-.532,2.373-1.055,4.749-1.5,7.138-.08.428.061,1.163.344,1.321.311.173.964-.054,1.362-.287a4.42,4.42,0,0,0,2.3-3.672,9.826,9.826,0,0,1,3.122-6.733,6.551,6.551,0,0,1,3.591-1.6,8.173,8.173,0,0,1,1.046-.048c2.219,0,4.437,0,6.819,0-.337,1.647-.653,3.207-.977,4.766-.431,2.072-.9,4.137-1.28,6.218-.08.436,0,1.153.27,1.334a1.476,1.476,0,0,0,1.367-.162,12.72,12.72,0,0,0,2.3-2.332c.4-.555.723-.8,1.462-.554" transform="translate(-1387.107 -548.734)" fill="url(#linear-gradient)"/>
      </g>
      <path id="Tracé_28751" data-name="Tracé 28751" d="M2.246,16.335A8.337,8.337,0,0,1,.155,12.056a8.32,8.32,0,0,1,1-5.882A6.532,6.532,0,0,1,8.1,2.978c2.856.375,5.643,1.262,8.462,1.914a51.858,51.858,0,0,0,6.6,1.453C28.2,6.83,32.178,5.022,34.567.339A.665.665,0,0,1,34.948,0a9.4,9.4,0,0,1-.067.983,14.852,14.852,0,0,1-4.132,8.052,8.5,8.5,0,0,1-8.316,2.405c-3.227-.734-6.373-1.827-9.55-2.779a15.807,15.807,0,0,0-6.1-.78,4.908,4.908,0,0,0-4.659,4.362,24.636,24.636,0,0,0,.064,3.651c0,.147.035.294.054.44" transform="translate(0 0)" fill="url(#linear-gradient)"/>
    </g>
  </g>
</svg>
