<svg xmlns="http://www.w3.org/2000/svg" width="110.582" height="52.37" viewBox="0 0 110.582 52.37">
  <g id="FINAL_LOGO_FIESTA" data-name="FINAL LOGO FIESTA" transform="translate(0 0)">
    <g id="Groupe_2986" data-name="Groupe 2986" transform="translate(0.283 12.695)">
      <path id="Tracé_28746" data-name="Tracé 28746" d="M485.4,406.791a6.113,6.113,0,0,0-1.687.389c-.621.2-1.331.448-2.008.7-.356.13-.626.236-.944.356.268-.209.534-.433.791-.672l1.5-1.4a1.076,1.076,0,0,0,.241-1.3,1.046,1.046,0,0,0-1.63-.262l-1.54,1.438c-.346.323-1.006.875-1.443,1.193-.03-.008-.062-.012-.092-.021l.361-.838a1.077,1.077,0,0,0-.3-1.289,1.046,1.046,0,0,0-1.6.422l-.935,2.284a3.88,3.88,0,0,1-.646.651,3.952,3.952,0,0,1-.828.5,18.13,18.13,0,0,1-3.544,1.226,28.521,28.521,0,0,1-6.607.41l1.722,5.715h0a16.238,16.238,0,0,0,2.9-.4c.636-.122,1.332-.28,2.36-.562,1.221-.336,2.937-.857,5.04-1.65q1.1-.389,2.248-.77c.79-.262,1.44-.469,1.865-.6a11.887,11.887,0,0,1,1.6-.355,12.107,12.107,0,0,1,2.4-.1h0a1,1,0,1,0,.153-1.991,11.457,11.457,0,0,0-2.744.135c-.028-.051-.057-.1-.089-.153.153-.057.262-.1.42-.159.661-.242,1.353-.486,1.929-.669s1.114-.3,1.121-.3h0a.9.9,0,0,0,.9-.9v-.112a.911.911,0,0,0-.921-.921" transform="translate(-440.339 -395.741)" fill="#1d1d1b"/>
      <path id="Tracé_28747" data-name="Tracé 28747" d="M17.6,531.4c-.083,0-.165,0-.247,0a10.831,10.831,0,0,0-1.437.156,12.639,12.639,0,0,0-2.024.548,11.162,11.162,0,0,0-3.356,1.794,10.371,10.371,0,0,0-2.237,2.476,9.235,9.235,0,0,1-2.406,1.237l-.028.012a.739.739,0,0,0-.461.793.7.7,0,0,0,.885.547,8.559,8.559,0,0,0,2.133-1c.042.044.084.088.13.132-.285.306-.575.611-.827.861a7.988,7.988,0,0,1-.605.544.684.684,0,0,0-.235.934h0a.584.584,0,0,0,.81.3,4.035,4.035,0,0,0,.981-.81c.325-.322.688-.707,1.031-1.079l.021-.024a2.487,2.487,0,0,0,.326.1l-.3.825a.759.759,0,0,0,.215.855.73.73,0,0,0,1.147-.32l.5-1.4a12.684,12.684,0,0,1,.58-1.328l.128.628a.768.768,0,0,0,.7.639.733.733,0,0,0,.746-.786,6.668,6.668,0,0,0-.309-1.974,17.255,17.255,0,0,1,2.659-.669,12.311,12.311,0,0,1,2.3-.231,10.754,10.754,0,0,1,5.216,2l-1.488-4.835A10.886,10.886,0,0,0,17.6,531.4" transform="translate(-5.389 -516.139)" fill="#1d1d1b"/>
      <path id="Tracé_28748" data-name="Tracé 28748" d="M328.771,266.275l-1.423-5.715a38.416,38.416,0,0,1-1.77-7.008,33.707,33.707,0,0,1-.31-9.508c.036-.252.068-.458.091-.593l-7.25-2.142c-.074.532-.136.965-.179,1.26,0,0-.175,1.2-.256,1.882-.025.213-.06.513-.088.908a20.491,20.491,0,0,0-.035,2.149,57.575,57.575,0,0,0,.555,6.209,64.993,64.993,0,0,0,1.652,7.509c.166.613.333,1.22.5,1.818,1.573,5.7,2.954,10.812,1.7,17.94h7.382a41.334,41.334,0,0,0-.566-14.708" transform="translate(-301.116 -241.309)" fill="#1d1d1b"/>
      <path id="Tracé_28749" data-name="Tracé 28749" d="M641.663,634.1c3.348.17,6.476-3.634,5.634-6.853-.244-.93-.838-1.1-1.883-.526-1.939,1.059-3.98,5.073-3.751,7.378m8.344,6.711c-5.744,4.185-10.329,3.923-13.156-.948-.934.791-1.857,1.609-2.824,2.37a6.007,6.007,0,0,1-1.34.741c-4.094,1.771-7.208-.445-6.562-4.86.615-4.2,1.545-8.356,2.411-12.516a1.558,1.558,0,0,1,1.064-.992c1.392-.121,2.8-.047,4.345-.047-.69,3.436-1.356,6.718-2.005,10-.338,1.709-.718,3.415-.95,5.14-.2,1.486.578,2.031,1.915,1.3,1.991-1.082,3.543-2.376,3.559-5.078a12.051,12.051,0,0,1,4.853-9.985,8.467,8.467,0,0,1,2.373-1.22c1.976-.663,3.954-.705,5.408,1.055s1.3,3.826.394,5.789c-1.381,2.985-3.968,4.183-7.088,4.488-.332.033-.664.06-1.085.1.133,1.779.505,3.4,2.072,4.354a4.027,4.027,0,0,0,4.695-.347,20.107,20.107,0,0,0,2.553-2.62,6.409,6.409,0,0,0,.418-.642c1.381-1.9,2.12-2,3.875-.524.382.321.754.654,1.142.992a17.668,17.668,0,0,0-2.229,1.365c-1.026.856-.811,1.946.406,2.507a5.651,5.651,0,0,0,6.353-1.686,1.85,1.85,0,0,0-.192-2.739,14.9,14.9,0,0,0-2.268-1.638c-1.8-1.072-3.639-2.083-4.768-3.959a3.612,3.612,0,0,1,1.1-5.252,10.968,10.968,0,0,1,10.784-.618,4.108,4.108,0,0,1,2.122,5.466c-.707-.223-1.427-.433-2.135-.68-.678-.237-1.342-.512-1.989-.762a.617.617,0,0,1-.006-.168c.357-.916.887-1.964.011-2.728-.95-.829-2.164-.557-3.266-.089a6.1,6.1,0,0,0-.886.513c-1.445.928-1.646,2.59-.269,3.6,1.542,1.129,3.256,2.022,4.878,3.045,2.109,1.33,2.908,2.953,2.474,5.018a5.06,5.06,0,0,1-2.732,3.387,12.15,12.15,0,0,1-9.9,1.083,17.544,17.544,0,0,1-3.563-2.218" transform="translate(-593.387 -604.073)"/>
      <path id="Tracé_28750" data-name="Tracé 28750" d="M1459.35,577.882a17.545,17.545,0,0,0,.5,2.529,1.463,1.463,0,0,0,2.163.949c2.017-1.026,3.7-2.428,4.177-4.82.47-2.373.867-4.762,1.41-7.118a1.847,1.847,0,0,0-.772-2.095,2.442,2.442,0,0,0-3.362.323c-2.96,2.628-3.756,6.156-4.115,10.233m18.641-.415c-1.409,3.239-3.576,5.5-6.958,6.4-2.689.713-4.214-.256-5.245-3.192-3.777,4.485-9.433,4.607-11.6-.062-.843.695-1.665,1.432-2.554,2.08a7.62,7.62,0,0,1-1.7.88c-3.85,1.517-6.826-.744-6.229-4.834.386-2.645,1.033-5.252,1.557-7.877.073-.367.118-.74.19-1.205l-2.108-.21c.563-1.276.544-3,2.689-2.268.318-1.462.663-2.732.848-4.025.1-.695.379-.912,1.022-1.017,1.458-.239,2.9-.561,4.541-.887l-1.063,5.854h2.959c-.56,1.439-.849,2.906-2.849,2.48-.189-.04-.645.38-.705.647-.716,3.192-1.419,6.388-2.021,9.6-.108.575.082,1.564.462,1.776.418.233,1.3-.072,1.832-.386a5.946,5.946,0,0,0,3.1-4.939,13.218,13.218,0,0,1,4.2-9.057,8.81,8.81,0,0,1,4.83-2.158,10.986,10.986,0,0,1,1.407-.065c2.985-.005,5.969,0,9.173,0-.454,2.216-.879,4.315-1.315,6.411-.58,2.787-1.209,5.565-1.722,8.365-.108.587-.005,1.551.363,1.8a1.985,1.985,0,0,0,1.839-.218,17.1,17.1,0,0,0,3.094-3.138c.542-.746.973-1.075,1.967-.746" transform="translate(-1367.693 -544.414)"/>
    </g>
    <path id="Tracé_28751" data-name="Tracé 28751" d="M3.022,21.974A11.215,11.215,0,0,1,.209,16.217,11.193,11.193,0,0,1,1.553,8.306c2.116-3.595,5.532-4.8,9.337-4.3,3.841.5,7.59,1.7,11.383,2.575a69.759,69.759,0,0,0,8.875,1.954c6.781.652,12.138-1.78,15.351-8.08A.894.894,0,0,1,47.012,0a12.646,12.646,0,0,1-.09,1.323,19.979,19.979,0,0,1-5.558,10.831A11.433,11.433,0,0,1,30.176,15.39C25.835,14.4,21.6,12.933,17.33,11.652a21.264,21.264,0,0,0-8.2-1.049A6.6,6.6,0,0,0,2.863,16.47a33.14,33.14,0,0,0,.086,4.911c.006.2.048.395.073.592" transform="translate(0)" fill="#1d1d1b"/>
  </g>
</svg>
