<svg xmlns="http://www.w3.org/2000/svg" width="15.518" height="11.434" viewBox="0 0 15.518 11.434">
  <g id="Groupe_1259" data-name="Groupe 1259" transform="translate(-2105.212 -902.283)">
    <g id="arrow-down-sign-to-navigate" transform="translate(2111.73 902.283) rotate(90)">
      <path id="Tracé_209" data-name="Tracé 209" d="M5.717,6.518a.8.8,0,0,1-.566-.234L.235,1.367A.8.8,0,0,1,1.367.234l4.35,4.35,4.35-4.35A.8.8,0,0,1,11.2,1.367L6.283,6.283A.8.8,0,0,1,5.717,6.518Z" transform="translate(0 0)" fill="#c3c3c3"/>
    </g>
    <g id="arrow-down-sign-to-navigate-2" data-name="arrow-down-sign-to-navigate" transform="translate(2120.73 902.283) rotate(90)" opacity="0.342">
      <path id="Tracé_209-2" data-name="Tracé 209" d="M5.717,6.518a.8.8,0,0,1-.566-.234L.235,1.367A.8.8,0,0,1,1.367.234l4.35,4.35,4.35-4.35A.8.8,0,0,1,11.2,1.367L6.283,6.283A.8.8,0,0,1,5.717,6.518Z" transform="translate(0 0)" fill="#c3c3c3"/>
    </g>
  </g>
</svg>
