<svg id="grinning" xmlns="http://www.w3.org/2000/svg" width="20.633" height="20.633" viewBox="0 0 20.633 20.633">
  <g id="Groupe_1258" data-name="Groupe 1258">
    <path id="Tracé_547" data-name="Tracé 547" d="M10.317,0A10.317,10.317,0,1,0,20.633,10.317,10.329,10.329,0,0,0,10.317,0Zm3.869,6.448a1.29,1.29,0,1,1-1.29,1.29A1.292,1.292,0,0,1,14.185,6.448Zm-7.737,0a1.29,1.29,0,1,1-1.29,1.29A1.292,1.292,0,0,1,6.448,6.448Zm3.869,11.606a7.754,7.754,0,0,1-7.442-5.628.645.645,0,0,1,.62-.82H17.138a.643.643,0,0,1,.513.255.65.65,0,0,1,.107.565A7.755,7.755,0,0,1,10.317,18.054Z" fill="#dedede"/>
  </g>
</svg>
