<svg id="fi-sr-picture" xmlns="http://www.w3.org/2000/svg" width="20.584" height="20.584" viewBox="0 0 20.584 20.584">
  <path id="Tracé_196" data-name="Tracé 196" d="M9.544,12.411a2.573,2.573,0,0,0-3.64,0L.038,18.277a4.281,4.281,0,0,0,4.256,3.966H16.3a4.261,4.261,0,0,0,2.36-.714Z" transform="translate(-0.005 -1.659)" fill="#dedede"/>
  <circle id="Ellipse_42" data-name="Ellipse 42" cx="2.15" cy="2.15" r="2.15" transform="translate(13.366 3)" fill="#dedede"/>
  <path id="Tracé_197" data-name="Tracé 197" d="M16.3,0H4.288A4.294,4.294,0,0,0,0,4.288v9.937L4.686,9.539a4.288,4.288,0,0,1,6.065,0l9.118,9.118a4.262,4.262,0,0,0,.714-2.361V4.288A4.294,4.294,0,0,0,16.3,0Zm-.858,8.577a3.431,3.431,0,1,1,3.431-3.431A3.431,3.431,0,0,1,15.438,8.577Z" fill="#dedede"/>
</svg>
