<svg id="group" xmlns="http://www.w3.org/2000/svg" width="23.523" height="19.954" viewBox="0 0 23.523 19.954">
  <g id="Groupe_1823" data-name="Groupe 1823" transform="translate(18.308 10.773)">
    <g id="Groupe_1822" data-name="Groupe 1822" transform="translate(0 0)">
      <path id="Tracé_927" data-name="Tracé 927" d="M400.313,273.32h-1.819a4.732,4.732,0,0,1,.287,1.627v6.876a2.027,2.027,0,0,1-.117.679h3.008a2.04,2.04,0,0,0,2.037-2.037v-3.748A3.4,3.4,0,0,0,400.313,273.32Z" transform="translate(-398.494 -273.32)" fill="#fff"/>
    </g>
  </g>
  <g id="Groupe_1825" data-name="Groupe 1825" transform="translate(0 10.773)">
    <g id="Groupe_1824" data-name="Groupe 1824" transform="translate(0 0)">
      <path id="Tracé_928" data-name="Tracé 928" d="M4.928,274.948a4.732,4.732,0,0,1,.287-1.627H3.4a3.4,3.4,0,0,0-3.4,3.4v3.748A2.04,2.04,0,0,0,2.037,282.5H5.045a2.028,2.028,0,0,1-.117-.679Z" transform="translate(0 -273.321)" fill="#fff"/>
    </g>
  </g>
  <g id="Groupe_1827" data-name="Groupe 1827" transform="translate(6.286 9.004)">
    <g id="Groupe_1826" data-name="Groupe 1826">
      <path id="Tracé_929" data-name="Tracé 929" d="M144.384,234.815h-4.159a3.4,3.4,0,0,0-3.4,3.4v6.876a.679.679,0,0,0,.679.679H147.1a.679.679,0,0,0,.679-.679v-6.876A3.4,3.4,0,0,0,144.384,234.815Z" transform="translate(-136.829 -234.815)" fill="#fff"/>
    </g>
  </g>
  <g id="Groupe_1829" data-name="Groupe 1829" transform="translate(7.678 0)">
    <g id="Groupe_1828" data-name="Groupe 1828" transform="translate(0 0)">
      <path id="Tracé_930" data-name="Tracé 930" d="M171.2,38.84a4.083,4.083,0,1,0,4.084,4.084A4.088,4.088,0,0,0,171.2,38.84Z" transform="translate(-167.114 -38.84)" fill="#fff"/>
    </g>
  </g>
  <g id="Groupe_1831" data-name="Groupe 1831" transform="translate(1.537 3.806)">
    <g id="Groupe_1830" data-name="Groupe 1830" transform="translate(0 0)">
      <path id="Tracé_931" data-name="Tracé 931" d="M36.5,121.689a3.053,3.053,0,1,0,3.054,3.054A3.058,3.058,0,0,0,36.5,121.689Z" transform="translate(-33.443 -121.689)" fill="#fff"/>
    </g>
  </g>
  <g id="Groupe_1833" data-name="Groupe 1833" transform="translate(15.879 3.806)">
    <g id="Groupe_1832" data-name="Groupe 1832" transform="translate(0 0)">
      <path id="Tracé_932" data-name="Tracé 932" d="M348.661,121.689a3.054,3.054,0,1,0,3.054,3.054A3.058,3.058,0,0,0,348.661,121.689Z" transform="translate(-345.607 -121.689)" fill="#fff"/>
    </g>
  </g>
</svg>
