<svg id="layer1" xmlns="http://www.w3.org/2000/svg" width="10.833" height="11.258" viewBox="0 0 10.833 11.258">
  <path id="circle2847" d="M5.521,290.9a3.228,3.228,0,0,0-1.859,5.872,5.25,5.25,0,0,0-3.3,4.866.51.51,0,1,0,1.019,0,4.221,4.221,0,0,1,6.443-3.591.51.51,0,1,0,.533-.87,5.239,5.239,0,0,0-.929-.441A3.229,3.229,0,0,0,5.521,290.9Zm0,1.02a2.213,2.213,0,1,1-2.215,2.215,2.206,2.206,0,0,1,2.215-2.215Zm3.125,8.669v1.019a.51.51,0,0,0,1.019,0V300.59h1.02a.51.51,0,1,0,0-1.02H9.665v-1.019a.509.509,0,1,0-1.019,0v1.019H7.6a.51.51,0,1,0,.024,1.02Z" transform="translate(-0.362 -290.902)" fill="#fff"/>
</svg>
