<svg xmlns="http://www.w3.org/2000/svg" width="25.525" height="21.653" viewBox="0 0 25.525 21.653">
  <g id="group" transform="translate(0 -38.84)">
    <g id="Groupe_1823" data-name="Groupe 1823" transform="translate(19.867 50.53)">
      <g id="Groupe_1822" data-name="Groupe 1822" transform="translate(0 0)">
        <path id="Tracé_927" data-name="Tracé 927" d="M400.468,273.32h-1.974a5.135,5.135,0,0,1,.311,1.765v7.461a2.2,2.2,0,0,1-.127.737h3.264a2.213,2.213,0,0,0,2.211-2.211V277A3.689,3.689,0,0,0,400.468,273.32Z" transform="translate(-398.494 -273.32)" fill="#fff"/>
      </g>
    </g>
    <g id="Groupe_1825" data-name="Groupe 1825" transform="translate(0 50.53)">
      <g id="Groupe_1824" data-name="Groupe 1824" transform="translate(0 0)">
        <path id="Tracé_928" data-name="Tracé 928" d="M5.348,275.086a5.135,5.135,0,0,1,.311-1.765H3.685A3.689,3.689,0,0,0,0,277.006v4.067a2.213,2.213,0,0,0,2.211,2.211H5.474a2.2,2.2,0,0,1-.127-.737Z" transform="translate(0 -273.321)" fill="#fff"/>
      </g>
    </g>
    <g id="Groupe_1827" data-name="Groupe 1827" transform="translate(6.822 48.61)">
      <g id="Groupe_1826" data-name="Groupe 1826">
        <path id="Tracé_929" data-name="Tracé 929" d="M145.027,234.815h-4.513a3.689,3.689,0,0,0-3.685,3.685v7.461a.737.737,0,0,0,.737.737h10.408a.737.737,0,0,0,.737-.737V238.5A3.689,3.689,0,0,0,145.027,234.815Z" transform="translate(-136.829 -234.815)" fill="#fff"/>
      </g>
    </g>
    <g id="Groupe_1829" data-name="Groupe 1829" transform="translate(8.331 38.84)">
      <g id="Groupe_1828" data-name="Groupe 1828" transform="translate(0 0)">
        <path id="Tracé_930" data-name="Tracé 930" d="M171.545,38.84a4.431,4.431,0,1,0,4.431,4.431A4.436,4.436,0,0,0,171.545,38.84Z" transform="translate(-167.114 -38.84)" fill="#fff"/>
      </g>
    </g>
    <g id="Groupe_1831" data-name="Groupe 1831" transform="translate(1.667 42.97)">
      <g id="Groupe_1830" data-name="Groupe 1830" transform="translate(0 0)">
        <path id="Tracé_931" data-name="Tracé 931" d="M36.757,121.689A3.312,3.312,0,1,0,40.071,125,3.318,3.318,0,0,0,36.757,121.689Z" transform="translate(-33.443 -121.689)" fill="#fff"/>
      </g>
    </g>
    <g id="Groupe_1833" data-name="Groupe 1833" transform="translate(17.23 42.97)">
      <g id="Groupe_1832" data-name="Groupe 1832" transform="translate(0 0)">
        <path id="Tracé_932" data-name="Tracé 932" d="M348.921,121.689A3.314,3.314,0,1,0,352.235,125,3.318,3.318,0,0,0,348.921,121.689Z" transform="translate(-345.607 -121.689)" fill="#fff"/>
      </g>
    </g>
  </g>
</svg>
