<svg xmlns="http://www.w3.org/2000/svg" width="24" height="24" viewBox="0 0 24 24">
  <g id="setting-4" transform="translate(-428 -188)">
    <path id="Vector" d="M6,0H0" transform="translate(444 194.5)" fill="none" stroke="#02132b" stroke-linecap="round" stroke-linejoin="round" stroke-width="1.5"/>
    <g id="Group_633" data-name="Group 633" opacity="0.5">
      <path id="Vector-2" data-name="Vector" d="M4,0H0" transform="translate(430 194.5)" fill="none" stroke="#02132b" stroke-linecap="round" stroke-linejoin="round" stroke-width="1.5"/>
      <path id="Vector-3" data-name="Vector" d="M7,3.5A3.5,3.5,0,1,1,3.5,0,3.5,3.5,0,0,1,7,3.5Z" transform="translate(434.5 191)" fill="none" stroke="#02132b" stroke-linecap="round" stroke-linejoin="round" stroke-width="1.5"/>
    </g>
    <path id="Vector-4" data-name="Vector" d="M6,0H0" transform="translate(430 205.5)" fill="none" stroke="#02132b" stroke-linecap="round" stroke-linejoin="round" stroke-width="1.5"/>
    <g id="Group_634" data-name="Group 634" opacity="0.5">
      <path id="Vector-5" data-name="Vector" d="M4,0H0" transform="translate(446 205.5)" fill="none" stroke="#02132b" stroke-linecap="round" stroke-linejoin="round" stroke-width="1.5"/>
      <path id="Vector-6" data-name="Vector" d="M7,3.5A3.5,3.5,0,1,1,3.5,0,3.5,3.5,0,0,1,7,3.5Z" transform="translate(438.5 202)" fill="none" stroke="#02132b" stroke-linecap="round" stroke-linejoin="round" stroke-width="1.5"/>
    </g>
    <path id="Vector-7" data-name="Vector" d="M0,0H24V24H0Z" transform="translate(428 188)" fill="none" opacity="0"/>
  </g>
</svg>
