<svg xmlns="http://www.w3.org/2000/svg" width="11.875" height="11.515" viewBox="0 0 11.875 11.515">
  <path id="fi-br-star" d="M3.393,11.689a1.788,1.788,0,0,1-1.05-.346,1.767,1.767,0,0,1-.659-2.007l.579-1.791L.739,6.43A1.794,1.794,0,0,1,1.8,3.187H3.664L4.231,1.42a1.8,1.8,0,0,1,3.418,0h0l.569,1.767h1.866A1.794,1.794,0,0,1,11.143,6.43L9.619,7.544,10.2,9.336a1.795,1.795,0,0,1-2.772,2L5.941,10.241,4.456,11.333a1.791,1.791,0,0,1-1.063.355ZM1.8,4.672a.31.31,0,0,0-.183.56L3.573,6.662a.742.742,0,0,1,.268.828L3.1,9.792a.31.31,0,0,0,.478.346L5.5,8.722a.742.742,0,0,1,.88,0l1.925,1.416a.309.309,0,0,0,.478-.346l-.742-2.3a.742.742,0,0,1,.268-.828l1.958-1.431a.31.31,0,0,0-.183-.56H7.674a.742.742,0,0,1-.707-.516L6.238,1.873a.31.31,0,0,0-.59,0L4.914,4.156a.742.742,0,0,1-.705.516Z" transform="translate(-0.003 -0.174)" fill="#5a6575"/>
</svg>
