<svg xmlns="http://www.w3.org/2000/svg" width="19" height="19" viewBox="0 0 19 19">
  <path id="world" d="M9.5,0A9.5,9.5,0,1,0,19,9.5,9.521,9.521,0,0,0,9.5,0ZM6.682,1.6A9.4,9.4,0,0,0,5.239,4.453H2.806A8.424,8.424,0,0,1,6.682,1.6ZM2.095,5.566H4.928A17.047,17.047,0,0,0,4.5,8.943H1.132a8.328,8.328,0,0,1,.963-3.377Zm-.963,4.491H4.5A17.06,17.06,0,0,0,4.92,13.4H2.075a8.325,8.325,0,0,1-.943-3.34ZM2.778,14.51H5.227A9.435,9.435,0,0,0,6.682,17.4,8.426,8.426,0,0,1,2.778,14.51Zm6.165,3.282c-1.248-.423-2.1-2.04-2.541-3.282H8.943Zm0-4.4H6.064a15.72,15.72,0,0,1-.452-3.34H8.943Zm0-4.453H5.613a15.688,15.688,0,0,1,.461-3.377H8.943Zm0-4.49H6.415c.445-1.229,1.29-2.825,2.528-3.245Zm7.25,0H13.761A9.4,9.4,0,0,0,12.318,1.6,8.424,8.424,0,0,1,16.194,4.453ZM10.057,1.209c1.238.42,2.083,2.016,2.528,3.245H10.057Zm0,4.358h2.869a15.691,15.691,0,0,1,.461,3.377H10.057Zm0,4.49h3.331a15.72,15.72,0,0,1-.452,3.34H10.057Zm0,7.735V14.509H12.6C12.153,15.751,11.3,17.369,10.057,17.791Zm2.262-.393a9.433,9.433,0,0,0,1.455-2.89h2.449A8.424,8.424,0,0,1,12.318,17.4Zm4.606-4H14.08a17.06,17.06,0,0,0,.421-3.34h3.367A8.326,8.326,0,0,1,16.925,13.4Zm.943-4.453H14.5a17.04,17.04,0,0,0-.43-3.377h2.833a8.325,8.325,0,0,1,.963,3.377Z" fill="#ef561d"/>
</svg>
