<svg xmlns="http://www.w3.org/2000/svg" width="15.741" height="15.741" viewBox="0 0 15.741 15.741">
  <g id="vuesax_outline_home" data-name="vuesax/outline/home" transform="translate(-556 -188)">
    <g id="home" transform="translate(556 188)">
      <path id="Vector" d="M.492,2.951A.5.5,0,0,1,0,2.46V.492A.5.5,0,0,1,.492,0,.5.5,0,0,1,.984.492V2.46A.5.5,0,0,1,.492,2.951Z" transform="translate(7.379 9.346)" fill="#292d32"/>
      <path id="Vector-2" data-name="Vector" d="M10.727,13.862H3.381A2.566,2.566,0,0,1,.9,11.77L.029,6.543A2.7,2.7,0,0,1,.935,4.168L5.48.528A2.6,2.6,0,0,1,8.628.535l4.545,3.634a2.754,2.754,0,0,1,.905,2.374l-.872,5.221A2.608,2.608,0,0,1,10.727,13.862ZM7.047.987A1.544,1.544,0,0,0,6.1,1.3L1.551,4.942A1.755,1.755,0,0,0,1,6.385l.872,5.221a1.607,1.607,0,0,0,1.509,1.272h7.346A1.606,1.606,0,0,0,12.236,11.6l.872-5.221a1.8,1.8,0,0,0-.551-1.443L8.012,1.3A1.56,1.56,0,0,0,7.047.987Z" transform="translate(0.817 0.935)" fill="#292d32"/>
      <path id="Vector-3" data-name="Vector" d="M0,0H15.741V15.741H0Z" fill="none" opacity="0"/>
    </g>
  </g>
</svg>
