<svg id="help" xmlns="http://www.w3.org/2000/svg" width="14.523" height="14.515" viewBox="0 0 14.523 14.515">
  <g id="LWPOLYLINE" transform="translate(4.899 3.641)">
    <g id="Groupe_809" data-name="Groupe 809" transform="translate(0)">
      <path id="Tracé_503" data-name="Tracé 503" d="M25.711,24.61h-.005a.559.559,0,0,1-.554-.564l0-.279a.462.462,0,0,1,0-.048,2.675,2.675,0,0,1,1.051-1.711c.147-.136.286-.264.4-.4a.757.757,0,0,0,.134-.9,1.234,1.234,0,0,0-1.356-.486,1.039,1.039,0,0,0-.755.791.559.559,0,1,1-1.08-.289,2.119,2.119,0,0,1,1.585-1.591,2.325,2.325,0,0,1,2.586,1.039,1.865,1.865,0,0,1-.278,2.176,6.683,6.683,0,0,1-.483.477c-.4.37-.651.618-.694.975l0,.252a.558.558,0,0,1-.558.554Z" transform="translate(-23.537 -19.069)" fill="#fff"/>
    </g>
  </g>
  <g id="POINT" transform="translate(6.514 9.749)">
    <g id="Groupe_810" data-name="Groupe 810" transform="translate(0 0)">
      <path id="Tracé_504" data-name="Tracé 504" d="M29.879,42.043a.563.563,0,0,1-.394-.162.556.556,0,0,1,0-.791.578.578,0,0,1,.788,0,.554.554,0,0,1,.165.394.553.553,0,0,1-.559.559Z" transform="translate(-29.32 -40.935)" fill="#fff"/>
    </g>
  </g>
  <g id="CIRCLE_2_" transform="translate(0 0)">
    <g id="Groupe_811" data-name="Groupe 811" transform="translate(0 0)">
      <path id="Tracé_505" data-name="Tracé 505" d="M13.24,20.551a7.2,7.2,0,0,1-1.872-.246,7.306,7.306,0,1,1,1.872.246Zm.035-13.4a6.142,6.142,0,0,0-1.617,12.072,6.1,6.1,0,0,0,1.582.208h0A6.145,6.145,0,0,0,16,7.791a6.131,6.131,0,0,0-2.729-.638Z" transform="translate(-5.999 -6.036)" fill="#fff"/>
    </g>
  </g>
</svg>
