<svg id="info" xmlns="http://www.w3.org/2000/svg" width="14.136" height="14.136" viewBox="0 0 14.136 14.136">
  <g id="Groupe_2093" data-name="Groupe 2093">
    <g id="Groupe_2092" data-name="Groupe 2092">
      <path id="Tracé_940" data-name="Tracé 940" d="M7.068,0a7.068,7.068,0,1,0,7.068,7.068A7.064,7.064,0,0,0,7.068,0Zm0,13.15A6.082,6.082,0,1,1,13.15,7.068,6.089,6.089,0,0,1,7.068,13.15Z" fill="rgba(255,255,255,0.82)"/>
    </g>
  </g>
  <g id="Groupe_2095" data-name="Groupe 2095" transform="translate(6.352 5.892)">
    <g id="Groupe_2094" data-name="Groupe 2094">
      <path id="Tracé_941" data-name="Tracé 941" d="M230.775,213.4c-.419,0-.716.177-.716.437v3.545c0,.223.3.447.716.447.4,0,.726-.223.726-.447v-3.545C231.5,213.574,231.175,213.4,230.775,213.4Z" transform="translate(-230.059 -213.397)" fill="rgba(255,255,255,0.82)"/>
    </g>
  </g>
  <g id="Groupe_2097" data-name="Groupe 2097" transform="translate(6.305 3.705)">
    <g id="Groupe_2096" data-name="Groupe 2096">
      <path id="Tracé_942" data-name="Tracé 942" d="M229.138,134.208a.67.67,0,1,0,.754.661A.721.721,0,0,0,229.138,134.208Z" transform="translate(-228.375 -134.208)" fill="rgba(255,255,255,0.82)"/>
    </g>
  </g>
</svg>
