<svg xmlns="http://www.w3.org/2000/svg" width="15.764" height="22.069" viewBox="0 0 15.764 22.069">
  <g id="_12-Lock" data-name="12-Lock" transform="translate(-6 -2)">
    <path id="Tracé_28728" data-name="Tracé 28728" d="M19.4,9.882V7.289A5.3,5.3,0,0,0,14.11,2h-.457A5.3,5.3,0,0,0,8.365,7.289V9.882A2.365,2.365,0,0,0,6,12.246v7.33a4.5,4.5,0,0,0,4.493,4.493h6.778a4.5,4.5,0,0,0,4.493-4.493v-7.33A2.365,2.365,0,0,0,19.4,9.882ZM9.941,7.289a3.712,3.712,0,0,1,3.712-3.712h.457a3.712,3.712,0,0,1,3.712,3.712V9.882H9.941ZM20.187,19.577a2.916,2.916,0,0,1-2.916,2.916H10.493a2.916,2.916,0,0,1-2.916-2.916v-7.33a.788.788,0,0,1,.788-.788H19.4a.788.788,0,0,1,.788.788Z" transform="translate(0 0)" fill="#ef561d"/>
    <path id="Tracé_28729" data-name="Tracé 28729" d="M16.365,19.93v2.585a.788.788,0,1,1-1.576,0V19.93a1.576,1.576,0,1,1,1.576,0Z" transform="translate(-1.694 -3.175)" fill="#ef561d"/>
  </g>
</svg>
