<svg xmlns="http://www.w3.org/2000/svg" width="21.367" height="21.358" viewBox="0 0 21.367 21.358">
  <path id="Tracé_28752" data-name="Tracé 28752" d="M22.36,92.153l-3-2.985a.634.634,0,0,0-.9,0l-2.9,2.9-3.221,3.215a3.331,3.331,0,0,1-4.71-4.71l3.406-3.406,2.712-2.712a.634.634,0,0,0,0-.9l-2.992-2.992a.634.634,0,0,0-.9,0L7.147,83.273,3.741,86.678a8.838,8.838,0,0,0,12.5,12.5l3.221-3.221,2.9-2.9A.634.634,0,0,0,22.36,92.153ZM10.3,81.911,12.4,84l-1.814,1.808L8.49,83.718Zm5.029,16.366A7.562,7.562,0,0,1,4.639,87.582l2.954-2.954L9.68,86.717,6.727,89.67a4.6,4.6,0,0,0,6.512,6.512l2.769-2.769L18.1,95.507ZM19,94.61l-2.094-2.094,2-2L21,92.611Z" transform="translate(-1.18 -80.375)" fill="#7f8894"/>
</svg>
