<svg xmlns="http://www.w3.org/2000/svg" width="11.863" height="14.433" viewBox="0 0 11.863 14.433">
  <g id="_12-Lock" data-name="12-Lock" transform="translate(0.15 0.15)">
    <path id="notification-bell" d="M3,11.921a.642.642,0,0,0,.642.642h2.57a2.57,2.57,0,0,0,5.139,0h2.57a.642.642,0,0,0,0-1.285H13.8a1.9,1.9,0,0,0,.118-.642V7.424a5.144,5.144,0,0,0-3.854-4.97V2.285a1.285,1.285,0,1,0-2.57,0v.169a5.144,5.144,0,0,0-3.854,4.97v3.212a1.9,1.9,0,0,0,.118.642H3.642A.642.642,0,0,0,3,11.921Zm5.782,1.927A1.286,1.286,0,0,1,7.5,12.563h2.57A1.286,1.286,0,0,1,8.782,13.848ZM4.927,10.636V7.424a3.854,3.854,0,1,1,7.709,0v3.212a.643.643,0,0,1-.642.642H5.57A.643.643,0,0,1,4.927,10.636Z" transform="translate(-3 -1)" fill="#fff" stroke="#07a4dc" stroke-width="0.3"/>
  </g>
</svg>
