<svg xmlns="http://www.w3.org/2000/svg" width="14.074" height="14.074" viewBox="0 0 14.074 14.074">
  <g id="vuesax_twotone_menu-board" data-name="vuesax/twotone/menu-board" transform="translate(-172 -380)">
    <g id="menu-board" transform="translate(172 380)">
      <path id="Vector" d="M12.276,1.642,10.3,9.576a1.306,1.306,0,0,1-1.278,1H1.315A1.324,1.324,0,0,1,.06,8.861L2.529.932A1.32,1.32,0,0,1,3.784,0H11a1.309,1.309,0,0,1,1.214.809A1.3,1.3,0,0,1,12.276,1.642Z" transform="translate(0.585 2.322)" fill="none" stroke="#292d32" stroke-width="1"/>
      <path id="Vector-2" data-name="Vector" d="M0,9.383H2.8a1.3,1.3,0,0,0,1.3-1.4L3.519,0" transform="translate(9.383 3.519)" fill="none" stroke="#292d32" stroke-linecap="round" stroke-linejoin="round" stroke-width="1" opacity="0.4"/>
      <path id="Vector-3" data-name="Vector" d="M0,2.533.61,0" transform="translate(5.677 1.208)" fill="none" stroke="#292d32" stroke-linecap="round" stroke-linejoin="round" stroke-width="1"/>
      <path id="Vector-4" data-name="Vector" d="M0,2.545.551,0" transform="translate(9.606 1.202)" fill="none" stroke="#292d32" stroke-linecap="round" stroke-linejoin="round" stroke-width="1"/>
      <path id="Vector-5" data-name="Vector" d="M0,0H4.691" transform="translate(4.515 7.037)" fill="none" stroke="#292d32" stroke-linecap="round" stroke-linejoin="round" stroke-width="1" opacity="0.4"/>
      <path id="Vector-6" data-name="Vector" d="M0,0H4.691" transform="translate(3.929 9.383)" fill="none" stroke="#292d32" stroke-linecap="round" stroke-linejoin="round" stroke-width="1" opacity="0.4"/>
      <path id="Vector-7" data-name="Vector" d="M0,0H14.074V14.074H0Z" fill="none" opacity="0"/>
    </g>
  </g>
</svg>
