<svg xmlns="http://www.w3.org/2000/svg" width="14.71" height="14.71" viewBox="0 0 14.71 14.71">
  <g id="vuesax_outline_profile-2user" data-name="vuesax/outline/profile-2user" transform="translate(-172 -252)">
    <g id="profile-2user" transform="translate(172 252)">
      <path id="Vector" d="M3.279,6.356H3.23a.333.333,0,0,0-.11,0,3.154,3.154,0,1,1,.178,0ZM3.181.919A2.259,2.259,0,0,0,3.1,5.437a1.02,1.02,0,0,1,.2,0A2.26,2.26,0,0,0,3.181.919Z" transform="translate(2.335 0.766)" fill="#292d32"/>
      <path id="Vector-2" data-name="Vector" d="M.591,5.21A.17.17,0,0,1,.536,5.2.485.485,0,0,1,0,4.8a.447.447,0,0,1,.38-.509c.074-.006.153-.006.221-.006A1.687,1.687,0,0,0,.511.913.454.454,0,0,1,.052.46.463.463,0,0,1,.511,0a2.611,2.611,0,0,1,2.6,2.6A2.6,2.6,0,0,1,.609,5.21Z" transform="translate(9.546 1.992)" fill="#292d32"/>
      <path id="Vector-3" data-name="Vector" d="M4.64,6.2a6.054,6.054,0,0,1-3.322-.919A2.63,2.63,0,0,1,0,3.1,2.657,2.657,0,0,1,1.318.915a6.489,6.489,0,0,1,6.644,0A2.644,2.644,0,0,1,9.279,3.091,2.657,2.657,0,0,1,7.962,5.279,6.069,6.069,0,0,1,4.64,6.2ZM1.826,1.687A1.762,1.762,0,0,0,.919,3.109a1.758,1.758,0,0,0,.907,1.41,5.539,5.539,0,0,0,5.627,0A1.762,1.762,0,0,0,8.36,3.1a1.758,1.758,0,0,0-.907-1.41A5.567,5.567,0,0,0,1.826,1.687Z" transform="translate(0.98 7.623)" fill="#292d32"/>
      <path id="Vector-4" data-name="Vector" d="M0,0H14.71V14.71H0Z" fill="none" opacity="0"/>
      <path id="Vector-5" data-name="Vector" d="M.456,4.6a.452.452,0,0,1-.447-.368.466.466,0,0,1,.355-.545,2.482,2.482,0,0,0,1.017-.447A1.2,1.2,0,0,0,1.921,2.3a1.189,1.189,0,0,0-.533-.938A2.566,2.566,0,0,0,.383.912a.462.462,0,1,1,.2-.9A3.421,3.421,0,0,1,1.946.624,2.108,2.108,0,0,1,2.841,2.3a2.135,2.135,0,0,1-.9,1.679,3.32,3.32,0,0,1-1.385.613A.287.287,0,0,1,.456,4.6Z" transform="translate(10.784 8.116)" fill="#292d32"/>
    </g>
  </g>
</svg>
