<svg id="credit-card" xmlns="http://www.w3.org/2000/svg" width="15.26" height="13.822" viewBox="0 0 15.26 13.822">
  <path id="Tracé_518" data-name="Tracé 518" d="M15.235,31.994l-1.158-6.57a1.646,1.646,0,0,0-1.9-1.333L2.237,25.843A1.646,1.646,0,0,0,.9,27.747l.085.483A1.646,1.646,0,0,0,0,29.737v6.507a1.646,1.646,0,0,0,1.644,1.644h9.863a1.646,1.646,0,0,0,1.644-1.644V34.031L13.9,33.9a1.644,1.644,0,0,0,1.333-1.9Zm-1.007.714a.742.742,0,0,1-.482.307l-.6.105V29.737a1.646,1.646,0,0,0-1.644-1.644H1.875l-.089-.5a.747.747,0,0,1,.606-.866l9.935-1.752a.747.747,0,0,1,.866.606l1.158,6.57A.742.742,0,0,1,14.228,32.708Zm-2.722,4.283H1.644A.748.748,0,0,1,.9,36.244V33.057H12.254v3.186A.748.748,0,0,1,11.506,36.991Zm-9.863-8h9.863a.748.748,0,0,1,.747.747v.39H.9v-.39A.748.748,0,0,1,1.644,28.99Zm10.61,2.034v1.137H.9V31.024Z" transform="translate(0 -24.066)" fill="#fff"/>
  <path id="Tracé_519" data-name="Tracé 519" d="M63.784,396.3H61.75a.448.448,0,1,0,0,.9h2.034a.448.448,0,1,0,0-.9Z" transform="translate(-59.47 -385.18)" fill="#fff"/>
</svg>
