<svg xmlns="http://www.w3.org/2000/svg" width="13.885" height="13.885" viewBox="0 0 13.885 13.885">
  <g id="vuesax_twotone_medal-star" data-name="vuesax/twotone/medal-star" transform="translate(-684 -252)">
    <g id="medal-star" transform="translate(684 252)">
      <path id="Vector" d="M8.1,4.05a4.023,4.023,0,0,1-3.442,4,3.57,3.57,0,0,1-1.215,0,4.047,4.047,0,1,1,4.657-4Z" transform="translate(2.893 1.157)" fill="none" stroke="#5a6575" stroke-linecap="round" stroke-linejoin="round" stroke-width="1"/>
      <path id="Vector-2" data-name="Vector" d="M11.149,3.222l-.955.226a.568.568,0,0,0-.428.428l-.2.85a.579.579,0,0,1-1.007.237L5.8,1.793,3.038,4.97a.579.579,0,0,1-1.007-.237l-.2-.85A.576.576,0,0,0,1.4,3.454L.446,3.228a.58.58,0,0,1-.278-.972L2.424,0A4.041,4.041,0,0,0,5.19,1.747,3.489,3.489,0,0,0,5.8,1.8,3.489,3.489,0,0,0,6.4,1.747,4.041,4.041,0,0,0,9.17,0l2.256,2.256A.576.576,0,0,1,11.149,3.222Z" transform="translate(1.145 7.463)" fill="none" stroke="#5a6575" stroke-linecap="round" stroke-linejoin="round" stroke-width="1" opacity="0.744"/>
      <path id="Vector-3" data-name="Vector" d="M2.253.278,2.594.96a.419.419,0,0,0,.278.2l.619.1c.393.064.486.353.2.636l-.48.48a.41.41,0,0,0-.1.353l.139.6c.11.469-.139.654-.555.4L2.12,3.4a.406.406,0,0,0-.382,0l-.579.341C.743,3.98.494,3.8.6,3.332l.139-.6a.434.434,0,0,0-.1-.353L.165,1.9c-.283-.283-.191-.567.2-.636l.619-.1a.422.422,0,0,0,.272-.2L1.6.278C1.767-.093,2.068-.093,2.253.278Z" transform="translate(5.025 3.182)" fill="none" stroke="#5a6575" stroke-linecap="round" stroke-linejoin="round" stroke-width="0.8" opacity="0.744"/>
      <path id="Vector-4" data-name="Vector" d="M0,0H13.885V13.885H0Z" fill="none" opacity="0"/>
    </g>
  </g>
</svg>
