<svg xmlns="http://www.w3.org/2000/svg" width="17.354" height="19" viewBox="0 0 17.354 19">
  <g id="talking" transform="translate(-22.173 -0.001)">
    <g id="Groupe_3089" data-name="Groupe 3089" transform="translate(22.173 0.001)">
      <g id="Groupe_3088" data-name="Groupe 3088" transform="translate(0 0)">
        <path id="Tracé_28757" data-name="Tracé 28757" d="M359.662,240.6a.608.608,0,0,0-.861.859,3.091,3.091,0,0,1,0,4.368.608.608,0,0,0,.861.859,4.307,4.307,0,0,0,0-6.085Z" transform="translate(-346.138 -231.499)" fill="#ef561d"/>
        <path id="Tracé_28758" data-name="Tracé 28758" d="M405.26,184.342a.608.608,0,0,0-.861.859,6.1,6.1,0,0,1,0,8.62.608.608,0,0,0,.861.859,7.317,7.317,0,0,0,0-10.337Z" transform="translate(-390.044 -177.329)" fill="#ef561d"/>
        <path id="Tracé_28759" data-name="Tracé 28759" d="M197.262,5.037c.71.532.94.731.94,1.067,0,.586-1.2,1.24-2.011,1.5a.608.608,0,0,0-.417.681l.157.926-3.7,1.61a.608.608,0,0,0,.485,1.115l4.139-1.8a.608.608,0,0,0,.357-.659l-.152-.9c.833-.345,2.36-1.157,2.36-2.473,0-.972-.662-1.467-1.428-2.04A9.917,9.917,0,0,1,194.768.329a.608.608,0,0,0-1.079.561A11.133,11.133,0,0,0,197.262,5.037Z" transform="translate(-185.566 -0.001)" fill="#ef561d"/>
        <path id="Tracé_28760" data-name="Tracé 28760" d="M33.458,16.6,30.34,15.262a.608.608,0,1,0-.481,1.117l2.489,1.071-.51.88a.608.608,0,0,0-.06.467,2.2,2.2,0,0,1-.067,1.78,2.176,2.176,0,0,1-1.68.538c-3.476,0-6.642-3.718-6.642-7.8,0-4.589,2.386-7.984,6.079-8.649a.608.608,0,1,0-.216-1.2c-4.234.762-7.079,4.719-7.079,9.845,0,4.8,3.672,9.016,7.857,9.016a3.137,3.137,0,0,0,2.648-1.018,3.006,3.006,0,0,0,.336-2.589l.729-1.258a.608.608,0,0,0-.286-.863Z" transform="translate(-22.173 -3.331)" fill="#ef561d"/>
      </g>
    </g>
  </g>
</svg>
