<svg xmlns="http://www.w3.org/2000/svg" width="14.18" height="16.292" viewBox="0 0 14.18 16.292">
  <path id="share" d="M11.513,10.958a2.66,2.66,0,0,0-1.972.873L5.151,9.113a2.656,2.656,0,0,0,0-1.934L9.541,4.46a2.666,2.666,0,1,0-.512-.826L4.639,6.353a2.667,2.667,0,1,0,0,3.586l4.39,2.719a2.666,2.666,0,1,0,2.484-1.7ZM9.819,2.667a1.694,1.694,0,1,1,1.694,1.694A1.7,1.7,0,0,1,9.819,2.667ZM2.667,9.84A1.694,1.694,0,1,1,4.361,8.146,1.7,1.7,0,0,1,2.667,9.84Zm7.152,3.785a1.694,1.694,0,1,1,1.694,1.694A1.7,1.7,0,0,1,9.819,13.625Zm0,0" fill="#fff"/>
</svg>
