<svg id="Layer_2" data-name="Layer 2" xmlns="http://www.w3.org/2000/svg" width="14.261" height="14.247" viewBox="0 0 14.261 14.247">
  <path id="Tracé_535" data-name="Tracé 535" d="M8.123,1A7.113,7.113,0,0,0,1.886,11.551l-.859,2.862a.648.648,0,0,0,.62.833.66.66,0,0,0,.187-.027L4.7,14.361A7.123,7.123,0,1,0,8.123,1Zm0,12.952a5.806,5.806,0,0,1-3.01-.846.653.653,0,0,0-.336-.093.63.63,0,0,0-.186.027l-1.978.594.593-1.978a.648.648,0,0,0-.065-.518,5.823,5.823,0,1,1,4.981,2.814Z" transform="translate(-1 -1)" fill="#fff"/>
</svg>
