<svg id="_12-Lock" data-name="12-Lock" xmlns="http://www.w3.org/2000/svg" width="11.087" height="15.521" viewBox="0 0 11.087 15.521">
  <path id="Tracé_500" data-name="Tracé 500" d="M15.424,7.543V5.72A3.725,3.725,0,0,0,11.7,2h-.322a3.725,3.725,0,0,0-3.72,3.72V7.543A1.663,1.663,0,0,0,6,9.206v5.155a3.165,3.165,0,0,0,3.16,3.16h4.767a3.165,3.165,0,0,0,3.16-3.16V9.206A1.663,1.663,0,0,0,15.424,7.543ZM8.772,5.72a2.611,2.611,0,0,1,2.611-2.611H11.7A2.611,2.611,0,0,1,14.315,5.72V7.543H8.772Zm7.206,8.642a2.051,2.051,0,0,1-2.051,2.051H9.16a2.051,2.051,0,0,1-2.051-2.051V9.206a.554.554,0,0,1,.554-.554h7.761a.554.554,0,0,1,.554.554Z" transform="translate(-6 -2)" fill="#fff"/>
  <path id="Tracé_501" data-name="Tracé 501" d="M15.663,19.057v1.818a.554.554,0,0,1-1.109,0V19.057a1.109,1.109,0,1,1,1.109,0Z" transform="translate(-9.565 -8.68)" fill="#fff"/>
</svg>
