<svg id="noun_Volume_1300631" xmlns="http://www.w3.org/2000/svg" width="19.783" height="19.789" viewBox="0 0 19.783 19.789">
  <path id="Tracé_2573" data-name="Tracé 2573" d="M12.954,7.153a.461.461,0,0,0-.514.1L5.98,13.713h-3.1A1.887,1.887,0,0,0,1,15.6v2.826a1.885,1.885,0,0,0,1.885,1.885h3.1l6.459,6.459a.471.471,0,0,0,.8-.334V7.589A.461.461,0,0,0,12.954,7.153Z" transform="translate(-1 -7.115)"/>
  <path id="Tracé_2575" data-name="Tracé 2575" d="M71.189,23.571a.471.471,0,0,0-.6.727,7.219,7.219,0,0,1,2.655,5.29,7.23,7.23,0,0,1-2.655,5.287.471.471,0,1,0,.6.727,8.219,8.219,0,0,0,3-6.014A8.215,8.215,0,0,0,71.189,23.571Z" transform="translate(-54.404 -19.692)"/>
  <path id="Tracé_2576" data-name="Tracé 2576" d="M62.922,33.76a.471.471,0,1,0-.554.761,3.694,3.694,0,0,1,1.691,2.916,3.7,3.7,0,0,1-1.691,2.916.471.471,0,0,0,.554.761,4.294,4.294,0,0,0,0-7.354Z" transform="translate(-48.045 -27.544)"/>
</svg>
