<svg xmlns="http://www.w3.org/2000/svg" width="16.953" height="19.789" viewBox="0 0 16.953 19.789">
  <g id="noun_Volume_1300631" transform="translate(0)">
    <path id="Tracé_2573" data-name="Tracé 2573" d="M12.954,7.153a.461.461,0,0,0-.514.1L5.98,13.713h-3.1A1.887,1.887,0,0,0,1,15.6v2.826a1.885,1.885,0,0,0,1.885,1.885h3.1l6.459,6.459a.471.471,0,0,0,.8-.334V7.589A.461.461,0,0,0,12.954,7.153Z" transform="translate(-1 -7.115)"/>
    <path id="Tracé_2576" data-name="Tracé 2576" d="M62.922,33.76a.471.471,0,1,0-.554.761,3.694,3.694,0,0,1,1.691,2.916,3.7,3.7,0,0,1-1.691,2.916.471.471,0,0,0,.554.761,4.294,4.294,0,0,0,0-7.354Z" transform="translate(-48.045 -27.544)"/>
  </g>
</svg>
