<svg xmlns="http://www.w3.org/2000/svg" width="11.509" height="16.113" viewBox="0 0 11.509 16.113">
  <g id="_12-Lock" data-name="12-Lock" transform="translate(-6 -2)">
    <path id="Tracé_28728" data-name="Tracé 28728" d="M15.783,7.755V5.861A3.867,3.867,0,0,0,11.922,2h-.334A3.867,3.867,0,0,0,7.726,5.861V7.755A1.726,1.726,0,0,0,6,9.481v5.352a3.286,3.286,0,0,0,3.28,3.28h4.949a3.286,3.286,0,0,0,3.28-3.28V9.481A1.726,1.726,0,0,0,15.783,7.755ZM8.877,5.861a2.71,2.71,0,0,1,2.71-2.71h.334a2.71,2.71,0,0,1,2.71,2.71V7.755H8.877s-1.329-.828-1.329-1.3S8.877,5.861,8.877,5.861Zm7.481,8.972a2.129,2.129,0,0,1-2.129,2.129H9.28a2.129,2.129,0,0,1-2.129-2.129V9.481a.575.575,0,0,1,.575-.575h8.057a.575.575,0,0,1,.575.575Z" transform="translate(0 0)" fill="#fff"/>
    <path id="Tracé_28729" data-name="Tracé 28729" d="M15.726,19.136v1.888a.575.575,0,1,1-1.151,0V19.136a1.151,1.151,0,1,1,1.151,0Z" transform="translate(-3.396 -6.363)" fill="#fff"/>
    <rect id="Rectangle_2410" data-name="Rectangle 2410" width="4" height="3" transform="translate(6.755 4.757)" fill="#fb9004"/>
  </g>
</svg>
