<svg xmlns="http://www.w3.org/2000/svg" width="13.197" height="20.621" viewBox="0 0 13.197 20.621">
  <g id="microphone-2" transform="translate(-78.336)">
    <g id="Groupe_695" data-name="Groupe 695" transform="translate(78.336 9.922)">
      <g id="Groupe_694" data-name="Groupe 694" transform="translate(0)">
        <path id="Tracé_479" data-name="Tracé 479" d="M91.533,210.136a.728.728,0,1,0-1.456,0,5.143,5.143,0,0,1-10.286,0,.728.728,0,1,0-1.456,0,6.6,6.6,0,0,0,5.871,6.574v1.941H81.563a.728.728,0,1,0,0,1.456h6.744a.728.728,0,0,0,0-1.456H85.662V216.71A6.6,6.6,0,0,0,91.533,210.136Z" transform="translate(-78.336 -209.408)" fill="#dedede"/>
      </g>
    </g>
    <g id="Groupe_697" data-name="Groupe 697" transform="translate(80.883)">
      <g id="Groupe_696" data-name="Groupe 696" transform="translate(0)">
        <path id="Tracé_480" data-name="Tracé 480" d="M136.147,0A4.059,4.059,0,0,0,132.1,4.051v6.574a4.051,4.051,0,1,0,8.1.024v-6.6A4.059,4.059,0,0,0,136.147,0Z" transform="translate(-132.096)" fill="#dedede"/>
      </g>
    </g>
  </g>
</svg>
