<svg xmlns="http://www.w3.org/2000/svg" width="12.555" height="6.29" viewBox="0 0 12.555 6.29">
  <g id="read" transform="translate(-0.001 -114.952)">
    <path id="Tracé_522" data-name="Tracé 522" d="M8.629,115.139a.629.629,0,0,0-.888-.007L3.1,119.718,1.084,117.63a.629.629,0,0,0-.908.871l0,0,2.46,2.549a.629.629,0,0,0,.447.189h.007a.629.629,0,0,0,.44-.182l5.091-5.034A.629.629,0,0,0,8.629,115.139Z" transform="translate(0)" fill="#fff"/>
    <path id="Tracé_523" data-name="Tracé 523" d="M207.322,122.036a.629.629,0,0,0,.445.189h.007a.629.629,0,0,0,.44-.182l5.091-5.034a.629.629,0,0,0-.881-.895l-4.638,4.586-.165-.172a.629.629,0,1,0-.908.871l0,0Z" transform="translate(-200.908 -0.983)" fill="#fff"/>
  </g>
</svg>
