<svg id="vuesax_twotone_edit-2" data-name="vuesax/twotone/edit-2" xmlns="http://www.w3.org/2000/svg" width="14.316" height="14.316" viewBox="0 0 14.316 14.316">
  <g id="edit-2">
    <path id="Vector" d="M5.526.858.628,6.042a1.819,1.819,0,0,0-.4.853L.008,8.828A.911.911,0,0,0,1.123,9.883l1.921-.328a1.713,1.713,0,0,0,.829-.447l4.9-5.184A1.943,1.943,0,0,0,8.681.763,1.944,1.944,0,0,0,5.526.858Z" transform="translate(2.384 1.289)" fill="none" stroke="#64c3be" stroke-linecap="round" stroke-linejoin="round" stroke-width="1.2"/>
    <path id="Vector-2" data-name="Vector" d="M0,0A3.654,3.654,0,0,0,3.251,3.072" transform="translate(7.092 3.012)" fill="none" stroke="#64c3be" stroke-linecap="round" stroke-linejoin="round" stroke-width="1.2" opacity="0.4"/>
    <path id="Vector-3" data-name="Vector" d="M0,0H10.737" transform="translate(1.789 13.123)" fill="none" stroke="#64c3be" stroke-linecap="round" stroke-linejoin="round" stroke-width="1.2" opacity="0.4"/>
    <path id="Vector-4" data-name="Vector" d="M0,0H14.316V14.316H0Z" fill="none" opacity="0"/>
  </g>
</svg>
