<svg xmlns="http://www.w3.org/2000/svg" width="16.502" height="14.946" viewBox="0 0 16.502 14.946">
  <g id="credit-card" transform="translate(0 -24.066)">
    <path id="Tracé_518" data-name="Tracé 518" d="M16.475,32.639l-1.253-7.1a1.78,1.78,0,0,0-2.059-1.442L2.419,25.987A1.779,1.779,0,0,0,.977,28.046l.092.522A1.78,1.78,0,0,0,0,30.2v7.036a1.78,1.78,0,0,0,1.777,1.778H12.442a1.78,1.78,0,0,0,1.777-1.778V34.841l.813-.143a1.778,1.778,0,0,0,1.442-2.059Zm-1.089.772a.8.8,0,0,1-.522.332l-.644.114V30.2a1.78,1.78,0,0,0-1.777-1.778H2.028l-.1-.543a.808.808,0,0,1,.655-.936l10.744-1.894a.808.808,0,0,1,.936.655l1.253,7.1A.8.8,0,0,1,15.386,33.411Zm-2.943,4.632H1.777a.809.809,0,0,1-.808-.808V33.789H13.25v3.446A.809.809,0,0,1,12.442,38.043ZM1.777,29.391H12.442a.809.809,0,0,1,.808.808v.422H.97V30.2A.809.809,0,0,1,1.777,29.391Zm11.473,2.2v1.23H.97V31.59Z" fill="#fff"/>
    <path id="Tracé_519" data-name="Tracé 519" d="M63.986,396.3h-2.2a.485.485,0,1,0,0,.97h2.2a.485.485,0,1,0,0-.97Z" transform="translate(-59.321 -360.209)" fill="#fff"/>
  </g>
</svg>
