<svg xmlns="http://www.w3.org/2000/svg" width="15.705" height="15.695" viewBox="0 0 15.705 15.695">
  <g id="help" transform="translate(-5.999 -6.036)">
    <g id="LWPOLYLINE" transform="translate(11.296 9.973)">
      <g id="Groupe_809" data-name="Groupe 809" transform="translate(0)">
        <path id="Tracé_503" data-name="Tracé 503" d="M25.888,25.06h-.005a.6.6,0,0,1-.6-.61l0-.3a.5.5,0,0,1,0-.052,2.892,2.892,0,0,1,1.136-1.85c.159-.147.309-.285.437-.43a.818.818,0,0,0,.144-.972,1.335,1.335,0,0,0-1.466-.526,1.123,1.123,0,0,0-.816.855.6.6,0,0,1-1.167-.313,2.291,2.291,0,0,1,1.714-1.72,2.514,2.514,0,0,1,2.8,1.123,2.017,2.017,0,0,1-.3,2.353,7.226,7.226,0,0,1-.522.516c-.433.4-.7.668-.75,1.054l0,.273a.6.6,0,0,1-.6.6Z" transform="translate(-23.537 -19.069)" fill="#fff"/>
      </g>
    </g>
    <g id="POINT" transform="translate(13.043 16.578)">
      <g id="Groupe_810" data-name="Groupe 810" transform="translate(0 0)">
        <path id="Tracé_504" data-name="Tracé 504" d="M29.924,42.133a.609.609,0,0,1-.426-.175.6.6,0,0,1,0-.855.625.625,0,0,1,.852,0,.6.6,0,0,1,.178.426.6.6,0,0,1-.6.6Z" transform="translate(-29.32 -40.935)" fill="#fff"/>
      </g>
    </g>
    <g id="CIRCLE_2_" transform="translate(5.999 6.036)">
      <g id="Groupe_811" data-name="Groupe 811" transform="translate(0 0)">
        <path id="Tracé_505" data-name="Tracé 505" d="M13.83,21.731a7.79,7.79,0,0,1-2.025-.266,7.9,7.9,0,1,1,2.025.266Zm.038-14.487A6.641,6.641,0,0,0,12.119,20.3a6.593,6.593,0,0,0,1.711.225h0A6.645,6.645,0,0,0,16.819,7.934a6.63,6.63,0,0,0-2.951-.69Z" transform="translate(-5.999 -6.036)" fill="#fff"/>
      </g>
    </g>
  </g>
</svg>
