<svg xmlns="http://www.w3.org/2000/svg" xmlns:xlink="http://www.w3.org/1999/xlink" width="37" height="37" viewBox="0 0 37 37">
  <defs>
    <clipPath id="clip-path">
      <path id="Tracé_500" data-name="Tracé 500" d="M18.5,0A18.5,18.5,0,1,1,0,18.5,18.5,18.5,0,0,1,18.5,0Z" transform="translate(537 562)" fill="#0074f6"/>
    </clipPath>
    <linearGradient id="linear-gradient" x1="0.119" y1="0.881" x2="0.83" y2="0.17" gradientUnits="objectBoundingBox">
      <stop offset="0" stop-color="#fee411"/>
      <stop offset="0.052" stop-color="#fedb16"/>
      <stop offset="0.138" stop-color="#fec125"/>
      <stop offset="0.248" stop-color="#fe983d"/>
      <stop offset="0.376" stop-color="#fe5f5e"/>
      <stop offset="0.5" stop-color="#fe2181"/>
      <stop offset="1" stop-color="#9000dc"/>
    </linearGradient>
  </defs>
  <g id="Groupe_1029" data-name="Groupe 1029" transform="translate(-537 -562)">
    <g id="Groupe_de_masques_12" data-name="Groupe de masques 12" clip-path="url(#clip-path)">
      <g id="instagram-8" transform="translate(534.451 559.451)">
        <circle id="Ellipse_64" data-name="Ellipse 64" cx="18.5" cy="18.5" r="18.5" transform="translate(2.549 2.549)" fill="url(#linear-gradient)"/>
        <g id="Groupe_1030" data-name="Groupe 1030">
          <path id="Tracé_536" data-name="Tracé 536" d="M24.979,10.771H17.127a6.351,6.351,0,0,0-6.348,6.348v7.852a6.351,6.351,0,0,0,6.348,6.348h7.852a6.351,6.351,0,0,0,6.348-6.348V17.119a6.351,6.351,0,0,0-6.348-6.348Zm4.054,14.208a4.065,4.065,0,0,1-4.062,4.062H17.119a4.065,4.065,0,0,1-4.062-4.062V17.127a4.065,4.065,0,0,1,4.062-4.062h7.852a4.065,4.065,0,0,1,4.062,4.062Z" fill="#fff"/>
          <path id="Tracé_537" data-name="Tracé 537" d="M21.049,15.795A5.254,5.254,0,1,0,26.3,21.049,5.264,5.264,0,0,0,21.049,15.795Zm0,8.444a3.19,3.19,0,1,1,3.19-3.19,3.193,3.193,0,0,1-3.19,3.19Z" fill="#fff"/>
          <circle id="Ellipse_65" data-name="Ellipse 65" cx="0.888" cy="0.888" r="0.888" transform="translate(25.542 14.76) rotate(-9.208)" fill="#fff"/>
        </g>
      </g>
    </g>
  </g>
</svg>
