<svg id="Groupe_3022" data-name="Groupe 3022" xmlns="http://www.w3.org/2000/svg" width="20.627" height="19.711" viewBox="0 0 20.627 19.711">
  <path id="Tracé_28753" data-name="Tracé 28753" d="M47.695,36.053V43.68H43.273V36.564c0-1.787-.638-3.007-2.24-3.007a2.419,2.419,0,0,0-2.268,1.617,3.027,3.027,0,0,0-.146,1.078v7.428H34.2s.059-12.052,0-13.3h4.423v1.885c-.009.015-.021.029-.029.044h.029v-.044a4.391,4.391,0,0,1,3.985-2.2c2.909,0,5.09,1.9,5.09,5.985ZM29.57,23.969a2.3,2.3,0,1,0-.058,4.6h.029a2.305,2.305,0,1,0,.029-4.6ZM27.331,43.68h4.421V30.38H27.331Z" transform="translate(-27.068 -23.969)" fill="#f1f2f2"/>
</svg>
