<svg xmlns="http://www.w3.org/2000/svg" width="11.989" height="16.784" viewBox="0 0 11.989 16.784">
  <g id="_12-Lock" data-name="12-Lock" transform="translate(-6 -2)">
    <path id="Tracé_500" data-name="Tracé 500" d="M16.19,7.994V6.022A4.028,4.028,0,0,0,12.168,2h-.348A4.028,4.028,0,0,0,7.8,6.022V7.994A1.8,1.8,0,0,0,6,9.793v5.575a3.423,3.423,0,0,0,3.417,3.417h5.155a3.423,3.423,0,0,0,3.417-3.417V9.793A1.8,1.8,0,0,0,16.19,7.994ZM9,6.022A2.823,2.823,0,0,1,11.821,3.2h.348a2.823,2.823,0,0,1,2.823,2.823V7.994H9Zm7.793,9.345a2.218,2.218,0,0,1-2.218,2.218H9.417A2.218,2.218,0,0,1,7.2,15.367V9.793a.6.6,0,0,1,.6-.6H16.19a.6.6,0,0,1,.6.6Z" fill="#fff"/>
    <path id="Tracé_501" data-name="Tracé 501" d="M15.8,19.225v1.966a.6.6,0,0,1-1.2,0V19.225a1.2,1.2,0,1,1,1.2,0Z" transform="translate(-3.204 -6.004)" fill="#fff"/>
  </g>
</svg>
