<svg xmlns="http://www.w3.org/2000/svg" width="12.804" height="15.582" viewBox="0 0 12.804 15.582">
  <g id="_12-Lock" data-name="12-Lock" transform="translate(-5.344 -2.46)">
    <path id="notification-bell" d="M3,12.809a.694.694,0,0,0,.695.695H6.473a2.779,2.779,0,1,0,5.557,0h2.779a.695.695,0,0,0,0-1.389h-.128a2.06,2.06,0,0,0,.128-.695V7.947a5.562,5.562,0,0,0-4.168-5.374V2.389a1.389,1.389,0,1,0-2.779,0v.183A5.562,5.562,0,0,0,3.695,7.947V11.42a2.06,2.06,0,0,0,.128.695H3.695A.694.694,0,0,0,3,12.809Zm6.252,2.084A1.391,1.391,0,0,1,7.863,13.5h2.779A1.391,1.391,0,0,1,9.252,14.893ZM5.084,11.42V7.947a4.168,4.168,0,1,1,8.336,0V11.42a.7.7,0,0,1-.695.695H5.779A.7.7,0,0,1,5.084,11.42Z" transform="translate(2.494 1.61)" fill="#fff" stroke="#02132b" stroke-width="0.3"/>
  </g>
</svg>
