<svg xmlns="http://www.w3.org/2000/svg" width="22" height="22" viewBox="0 0 22 22">
  <g id="Group_2972" data-name="Group 2972" transform="translate(-271 -398)">
    <circle id="Ellipse_55" data-name="Ellipse 55" cx="11" cy="11" r="11" transform="translate(271 398)" fill="rgba(0,0,0,0.5)"/>
    <g id="edit" transform="translate(271.281 398.265)">
      <g id="Group_840" data-name="Group 840" transform="translate(6.574 6.45)">
        <path id="Path_510" data-name="Path 510" d="M9.467,14.726a.362.362,0,0,1-.256-.618L14.87,8.449a.362.362,0,1,1,.512.512L9.723,14.62A.361.361,0,0,1,9.467,14.726Z" transform="translate(-9.105 -8.343)" fill="#fff"/>
      </g>
      <g id="Group_841" data-name="Group 841" transform="translate(6.014 12.108)">
        <path id="Path_511" data-name="Path 511" d="M6.377,42.928A.366.366,0,0,1,6.3,42.92a.362.362,0,0,1-.278-.43l.559-2.608a.362.362,0,0,1,.708.152l-.559,2.608a.362.362,0,0,1-.354.286Z" transform="translate(-6.015 -39.597)" fill="#fff"/>
      </g>
      <g id="Group_842" data-name="Group 842" transform="translate(8.622 8.498)">
        <path id="Path_512" data-name="Path 512" d="M20.78,26.04a.362.362,0,0,1-.256-.618l5.658-5.658a.362.362,0,1,1,.512.512l-5.658,5.658A.361.361,0,0,1,20.78,26.04Z" transform="translate(-20.418 -19.657)" fill="#fff"/>
      </g>
      <g id="Group_843" data-name="Group 843" transform="translate(6.014 14.156)">
        <path id="Path_513" data-name="Path 513" d="M6.376,52.194a.362.362,0,0,1-.076-.716l2.608-.559a.362.362,0,0,1,.152.708l-2.608.559a.354.354,0,0,1-.076.008Z" transform="translate(-6.014 -50.91)" fill="#fff"/>
      </g>
      <g id="Group_844" data-name="Group 844" transform="translate(11.208 7.474)">
        <path id="Path_514" data-name="Path 514" d="M37.112,16.773a.36.36,0,0,1-.256-.106l-2.048-2.048a.362.362,0,0,1,.512-.512l2.048,2.048a.362.362,0,0,1-.256.618Z" transform="translate(-34.702 -14)" fill="#fff"/>
      </g>
      <g id="Group_845" data-name="Group 845" transform="translate(12.232 6.031)">
        <path id="Path_515" data-name="Path 515" d="M42.768,9.222a.362.362,0,0,1-.256-.618,1.086,1.086,0,0,0-1.536-1.536.362.362,0,0,1-.512-.512,1.81,1.81,0,0,1,2.56,2.56A.36.36,0,0,1,42.768,9.222Z" transform="translate(-40.357 -6.031)" fill="#fff"/>
      </g>
    </g>
  </g>
</svg>
