<svg xmlns="http://www.w3.org/2000/svg" width="12.338" height="12.338" viewBox="0 0 12.338 12.338">
  <g id="share-3" transform="translate(-218.731 -92.903)">
    <path id="Tracé_506" data-name="Tracé 506" d="M224.283,92.9H221.2a2.468,2.468,0,0,0-2.468,2.468v7.4a2.468,2.468,0,0,0,2.468,2.468h7.4a2.468,2.468,0,0,0,2.468-2.468V99.689a.617.617,0,1,0-1.234,0v3.085a1.234,1.234,0,0,1-1.234,1.234h-7.4a1.234,1.234,0,0,1-1.234-1.234v-7.4a1.233,1.233,0,0,1,1.234-1.234h3.085a.617.617,0,1,0,0-1.234Zm4.68,1.234h-2.212a.617.617,0,1,1,0-1.234h3.7a.617.617,0,0,1,.617.617v3.7a.617.617,0,0,1-1.234,0V95.009l-4.5,4.5a.617.617,0,0,1-.872-.872Z" fill="#fff" fill-rule="evenodd"/>
  </g>
</svg>
