<svg xmlns="http://www.w3.org/2000/svg" width="19.56" height="18.412" viewBox="0 0 19.56 18.412">
  <path id="snapchat-2" d="M16.063,15.386c.7-.111,2.164-.366,2.443-1.008a.441.441,0,0,0-.317-.641h0a5.359,5.359,0,0,1-3.643-3.057c-.687-1.232,1.178-1.025,1.912-1.776.716-.737-.432-1.534-1.15-1.2a1.4,1.4,0,0,1-1.03.165c.07-1.166.262-3.1-.21-4.157C12.478.157,7.794.029,5.617,2.095,3.9,3.721,4.112,5.393,4.273,7.872c-.533.233-1.061-.23-1.445-.23a.963.963,0,0,0-.948.657c-.1.519.468.853.955,1.045.831.326,1.621.423,1.183,1.313a.123.123,0,0,0-.009.021A5.158,5.158,0,0,1,.364,13.735a.444.444,0,0,0-.318.641v0c.276.643,1.749.9,2.444,1.009.215.4.05,1.2.716,1.2a13.917,13.917,0,0,1,1.4-.169,2.8,2.8,0,0,1,2,.731,4.1,4.1,0,0,0,5.352,0v0a3.107,3.107,0,0,1,2.968-.625c1.214.235.86-.587,1.141-1.132Z" transform="translate(0.504 -0.232)" fill="#fff" stroke="#000" stroke-width="1"/>
</svg>
