<svg xmlns="http://www.w3.org/2000/svg" width="19.246" height="15.637" viewBox="0 0 19.246 15.637">
  <path id="twitter-3" d="M17.268,6.15A7.876,7.876,0,0,0,19.246,4.1h0a8.24,8.24,0,0,1-2.273.623,3.925,3.925,0,0,0,1.736-2.18,7.9,7.9,0,0,1-2.5.955A3.945,3.945,0,0,0,9.382,6.2a4.063,4.063,0,0,0,.091.9A11.171,11.171,0,0,1,1.34,2.969,3.945,3.945,0,0,0,2.552,8.242,3.9,3.9,0,0,1,.77,7.756V7.8a3.964,3.964,0,0,0,3.161,3.877,3.923,3.923,0,0,1-1.034.13,3.483,3.483,0,0,1-.747-.067,3.984,3.984,0,0,0,3.686,2.749A7.931,7.931,0,0,1,.944,16.17,7.462,7.462,0,0,1,0,16.117a11.111,11.111,0,0,0,6.053,1.771A11.153,11.153,0,0,0,17.268,6.15Z" transform="translate(0 -2.25)" fill="#fff"/>
</svg>
